<?xml version="1.0" standalone="no"?>
<!DOCTYPE svg PUBLIC "-//W3C//DTD SVG 20010904//EN"
 "http://www.w3.org/TR/2001/REC-SVG-20010904/DTD/svg10.dtd">
<svg version="1.0" xmlns="http://www.w3.org/2000/svg"
 width="260.000000pt" height="260.000000pt" viewBox="0 0 260.000000 260.000000"
 preserveAspectRatio="xMidYMid meet">
<metadata>
Created by potrace 1.11, written by Peter Selinger 2001-2013
</metadata>
<g transform="translate(0.000000,260.000000) scale(0.100000,-0.100000)"
fill="#000000" stroke="none">
<path d="M1165 2451 c-6 -5 -37 -13 -70 -16 -33 -4 -66 -12 -72 -17 -9 -7 -13
-6 -13 3 0 10 -2 11 -8 2 -7 -10 -78 -30 -94 -25 -5 1 -8 -2 -8 -8 0 -5 -3 -9
-7 -9 -15 3 -73 -14 -73 -21 0 -3 -6 -7 -14 -7 -19 0 -169 -74 -178 -87 -5 -7
-8 -7 -8 -1 0 6 -3 6 -8 0 -4 -6 -23 -22 -42 -35 -48 -33 -54 -39 -106 -87
-25 -24 -50 -43 -55 -43 -5 0 -9 -6 -9 -14 0 -8 -7 -17 -16 -20 -9 -4 -14 -9
-11 -12 8 -8 -16 -33 -25 -27 -5 2 -8 0 -8 -6 0 -5 -6 -16 -13 -23 -7 -7 -23
-34 -37 -60 -14 -27 -28 -48 -32 -48 -5 0 -8 -5 -8 -12 0 -6 -11 -40 -25 -75
-14 -35 -23 -69 -19 -75 4 -6 3 -8 -3 -5 -5 3 -15 -23 -23 -61 -8 -37 -15 -70
-16 -74 -1 -5 -2 -20 -3 -34 -1 -15 -5 -23 -12 -18 -8 4 -8 0 0 -15 9 -16 9
-21 -1 -21 -8 0 -9 -3 -3 -8 11 -8 16 -42 6 -42 -8 0 -5 -65 4 -79 3 -6 0 -11
-7 -11 -8 0 -9 -3 -3 -8 13 -9 14 -65 0 -74 -6 -5 -6 -8 2 -8 13 0 13 -67 -1
-89 -7 -10 -6 -12 4 -6 9 6 10 2 4 -16 -5 -13 -8 -36 -9 -51 0 -14 -3 -24 -7
-21 -7 4 -13 -37 -9 -60 0 -4 -3 -7 -8 -7 -5 0 -8 -13 -7 -29 1 -17 -2 -27 -7
-24 -6 3 -7 -19 -2 -58 4 -35 8 -75 9 -89 1 -14 6 -31 10 -38 4 -7 8 -26 8
-42 1 -17 6 -30 11 -30 6 0 8 -3 4 -6 -3 -3 -2 -17 4 -31 5 -13 11 -38 14 -55
3 -17 9 -36 13 -42 3 -6 7 -15 8 -21 5 -27 50 -140 57 -143 4 -2 7 -12 7 -23
0 -10 3 -19 8 -19 4 0 13 -14 20 -30 8 -17 24 -33 38 -36 13 -3 22 -9 19 -14
-4 -7 73 -35 88 -32 4 1 7 -2 7 -6 0 -18 50 -32 68 -21 14 9 26 8 50 -5 17 -9
38 -16 46 -16 8 0 16 -3 18 -7 2 -5 26 -17 53 -28 49 -21 58 -20 125 3 8 3 26
7 40 9 13 2 28 9 32 16 5 8 11 7 21 -2 18 -14 117 -12 117 2 0 5 8 3 17 -4 11
-10 14 -10 9 -2 -4 8 -1 13 8 13 26 0 30 1 44 12 6 6 12 7 12 4 0 -4 10 0 22
8 12 9 31 16 41 16 10 0 16 4 12 9 -3 5 3 12 14 16 11 3 22 18 26 33 9 41 3
142 -8 142 -5 0 -5 6 2 13 6 8 8 17 4 21 -4 3 -9 17 -11 29 -2 12 -5 27 -6 34
-1 7 -5 15 -8 19 -4 3 -4 12 -1 20 3 8 -1 22 -8 31 -12 14 -12 15 -1 9 12 -7
12 -4 1 15 -7 13 -12 27 -11 32 1 4 -4 23 -12 42 -8 19 -12 35 -8 35 4 0 0 5
-8 10 -13 8 -13 10 0 10 11 0 11 3 2 12 -7 7 -12 20 -12 30 0 10 -5 18 -11 18
-6 0 -8 9 -4 20 4 11 2 20 -4 20 -6 0 -11 14 -11 30 0 17 -5 30 -12 30 -6 0
-9 3 -5 6 3 4 0 21 -8 39 -7 19 -11 36 -7 39 3 3 0 6 -7 6 -7 0 -9 5 -5 11 3
6 3 14 -2 18 -5 3 -18 31 -28 61 -10 30 -32 84 -49 120 -17 36 -32 71 -33 78
-2 8 -10 22 -18 31 -9 10 -16 22 -16 27 0 6 -16 27 -35 48 -25 28 -41 37 -55
33 -11 -3 -17 -1 -14 4 3 6 -8 7 -28 3 -18 -4 -40 -8 -48 -9 -33 -5 -76 -18
-87 -27 -7 -5 -17 -7 -23 -3 -5 3 -10 2 -10 -4 0 -5 -10 -13 -22 -17 -12 -4
-35 -20 -51 -35 -25 -26 -45 -34 -69 -30 -5 0 -8 -4 -8 -9 0 -6 -11 -10 -25
-10 -14 0 -25 -4 -25 -9 0 -6 -9 -8 -19 -6 -17 3 -28 -8 -36 -37 -2 -5 -4 -11
-5 -15 -1 -5 -2 -11 -1 -15 0 -5 -4 -8 -10 -8 -5 0 -7 -4 -4 -10 3 -5 3 -16
-2 -22 -4 -7 -8 -16 -8 -20 0 -5 -4 -7 -10 -5 -5 1 -8 7 -7 12 10 28 10 70 1
87 -7 14 -7 18 -1 14 12 -7 10 33 -3 53 -5 9 -4 12 3 7 12 -7 11 32 -2 52 -4
6 -2 20 4 31 7 14 7 22 0 26 -7 4 -7 11 -2 18 9 11 22 76 25 124 1 11 5 19 10
16 6 -4 11 12 8 30 0 4 3 7 8 7 5 0 14 13 21 30 7 16 17 27 23 23 5 -3 7 -1 4
4 -4 6 1 20 11 31 9 11 24 30 32 43 25 39 143 151 187 179 23 15 40 30 36 34
-3 3 2 6 11 6 10 0 30 9 46 20 15 11 30 17 34 13 3 -3 6 -1 6 6 0 7 5 9 10 6
6 -3 10 -2 10 3 0 9 47 27 63 24 4 -1 7 3 7 10 0 6 3 8 7 5 3 -4 11 -3 17 2 6
5 29 14 51 22 50 17 43 15 93 24 23 4 42 13 42 19 0 6 5 4 10 -4 5 -8 10 -10
10 -4 0 6 6 11 13 12 6 0 41 4 77 7 108 12 320 3 343 -14 1 -1 17 -4 35 -7 18
-2 48 -10 68 -19 22 -9 32 -10 28 -3 -4 6 3 4 17 -5 13 -9 34 -17 46 -17 13 0
23 -4 23 -10 0 -5 9 -10 19 -10 11 0 23 -4 26 -10 3 -5 15 -10 26 -10 10 0 19
-4 19 -10 0 -5 8 -10 19 -10 10 0 24 -7 31 -15 7 -8 16 -13 20 -10 4 3 11 -2
14 -11 3 -8 10 -12 16 -9 5 3 10 1 10 -4 0 -6 7 -11 15 -11 7 0 18 -6 22 -12
4 -7 24 -24 43 -37 19 -14 39 -30 43 -38 4 -7 16 -13 25 -13 14 0 14 -2 3 -9
-11 -7 -9 -10 8 -16 11 -3 21 -13 21 -21 0 -8 7 -14 15 -14 8 0 15 -5 15 -11
0 -6 6 -17 13 -24 23 -26 33 -40 57 -80 13 -22 30 -46 37 -53 7 -7 13 -20 13
-28 0 -25 1 -29 16 -46 11 -12 12 -18 4 -23 -9 -6 -9 -9 0 -15 8 -5 12 -38 11
-99 -1 -71 2 -91 11 -85 10 6 9 3 0 -8 -8 -10 -13 -39 -12 -75 3 -97 0 -133
-8 -133 -5 0 -9 6 -10 13 0 6 -3 21 -6 32 -2 11 -5 28 -5 38 -1 11 -6 15 -13
11 -7 -5 -8 -3 -3 5 11 18 -15 61 -37 61 -10 0 -18 5 -18 10 0 6 -10 10 -23
10 -13 0 -28 5 -35 12 -7 7 -12 8 -12 3 0 -6 -5 -3 -10 5 -7 11 -10 11 -10 2
0 -7 -12 0 -27 15 -30 30 -118 76 -168 89 -40 10 -45 11 -47 14 -8 6 -88 4
-88 -2 0 -4 -11 -10 -24 -14 -21 -5 -41 -29 -36 -43 1 -2 -4 -7 -12 -12 -7 -5
-13 -12 -13 -16 0 -4 -10 -23 -23 -40 -13 -18 -21 -33 -19 -33 3 0 -8 -28 -25
-62 -16 -34 -32 -71 -34 -81 -2 -11 -8 -25 -15 -33 -6 -8 -8 -14 -4 -14 4 0 2
-7 -5 -15 -7 -8 -9 -15 -4 -15 5 0 4 -4 -1 -8 -11 -8 -48 -114 -48 -137 0 -8
-4 -15 -8 -15 -4 0 -10 -17 -15 -37 -9 -43 -10 -51 -14 -58 -1 -3 -3 -8 -5
-12 -1 -5 -4 -15 -8 -23 -6 -17 -18 -65 -24 -95 -2 -11 -6 -27 -9 -35 -6 -15
-14 -52 -16 -77 -1 -7 -6 -13 -11 -13 -5 0 -4 -6 2 -14 7 -8 8 -16 2 -18 -5
-1 -10 -19 -12 -38 -2 -19 -8 -41 -13 -49 -9 -12 -8 -13 3 -6 10 6 12 4 5 -6
-10 -17 -13 -119 -3 -119 4 0 9 -8 11 -17 6 -23 96 -71 147 -79 23 -4 39 -9
37 -13 -3 -4 24 -8 60 -9 35 -1 64 2 64 6 0 5 7 9 15 9 8 0 15 -4 15 -9 0 -4
10 -8 23 -8 12 0 34 -7 50 -14 19 -11 27 -12 27 -3 1 8 5 7 13 -3 14 -18 37
-24 37 -10 0 5 7 7 15 4 8 -4 15 -2 15 4 0 6 14 13 30 17 17 4 30 11 30 16 0
6 4 8 8 5 5 -3 20 1 35 9 15 8 27 11 27 7 0 -3 6 2 13 12 12 16 14 16 31 -3
16 -18 52 -19 41 -1 -3 4 11 11 30 14 19 4 35 11 35 15 0 5 14 11 30 15 35 7
92 45 84 58 -3 4 -1 8 4 8 9 0 72 130 72 149 0 6 5 11 11 11 5 0 8 4 5 9 -3 5
1 25 9 45 8 20 13 36 10 36 -3 0 1 13 10 30 8 16 15 33 15 37 0 18 13 79 20
88 3 6 7 25 9 44 1 19 7 41 13 48 8 10 7 13 -2 13 -9 0 -10 3 -1 13 6 8 8 17
4 20 -3 4 -1 7 5 7 8 0 9 7 2 26 -7 16 -7 23 0 19 6 -3 10 -2 10 4 0 5 -4 12
-10 16 -5 3 -7 12 -3 20 3 8 -1 15 -8 15 -7 0 -10 2 -7 6 3 3 -4 42 -16 87
-15 59 -21 106 -19 167 5 220 3 287 -10 308 -5 7 -3 12 4 12 9 0 9 4 -1 15 -6
8 -9 19 -6 24 4 5 3 12 -2 15 -4 2 -9 19 -10 37 -2 18 -7 36 -13 40 -6 3 -10
8 -8 10 1 2 -3 27 -11 54 -7 28 -12 54 -11 58 1 5 -3 6 -9 2 -9 -5 -15 15 -11
38 0 4 -3 7 -8 7 -5 0 -12 13 -16 29 -3 16 -13 32 -21 35 -8 3 -14 12 -14 21
0 8 -4 15 -10 15 -5 0 -10 6 -10 13 0 8 -18 31 -39 52 -22 22 -37 43 -35 47 3
5 1 8 -4 8 -4 0 -32 23 -61 50 -29 28 -58 50 -64 50 -5 0 -7 3 -4 7 7 6 -16
22 -60 42 -13 6 -23 15 -23 21 0 5 -7 10 -15 10 -8 0 -15 5 -15 11 0 5 -4 8
-9 4 -5 -3 -16 2 -24 10 -9 8 -20 15 -26 15 -6 0 -25 9 -43 20 -18 11 -43 20
-56 20 -13 0 -21 4 -18 9 3 5 -11 12 -32 16 -20 4 -43 11 -49 17 -7 6 -13 8
-13 5 0 -3 -24 1 -52 9 -29 8 -60 16 -68 18 -14 4 -123 19 -142 20 -3 1 -9 4
-13 8 -4 4 -18 3 -32 -3 -13 -5 -22 -5 -19 -1 2 4 -13 7 -34 7 -23 0 -36 -4
-33 -10 3 -5 0 -4 -8 3 -7 6 -17 12 -22 12 -4 0 -5 -6 -1 -12 5 -9 2 -9 -9 1
-9 7 -17 10 -17 5 0 -5 -13 -9 -30 -10 -16 -1 -27 3 -24 7 7 12 0 11 -11 0z"/>
</g>
</svg>
